<svg width="284" height="46" viewBox="0 0 284 46" fill="none" xmlns="http://www.w3.org/2000/svg">
<path d="M110.135 3.00013H9.53468C9.16798 3.00013 8.80568 3.00013 8.43995 3.00213C8.1338 3.00413 7.83009 3.00994 7.521 3.01483C6.84951 3.02273 6.17961 3.08181 5.5171 3.19154C4.85552 3.30366 4.21467 3.51505 3.61622 3.81854C3.0185 4.1246 2.47235 4.5223 1.99757 4.9972C1.5203 5.47077 1.12246 6.01815 0.81935 6.61829C0.5154 7.21724 0.304641 7.85907 0.19435 8.52161C0.0830109 9.18332 0.0230984 9.85265 0.01515 10.5236C0.00587 10.8302 0.00489 11.1378 0 11.4445V34.5587C0.00489 34.8692 0.00587 35.17 0.01515 35.4806C0.0231008 36.1516 0.0830134 36.8209 0.19435 37.4825C0.304336 38.1455 0.515108 38.7877 0.81935 39.3868C1.12233 39.985 1.52022 40.5302 1.99757 41.0011C2.47054 41.4781 3.01705 41.8761 3.61622 42.1798C4.21467 42.4841 4.85545 42.6968 5.5171 42.8106C6.17972 42.9195 6.84956 42.9786 7.521 42.9874C7.83009 42.9942 8.1338 42.9981 8.43995 42.9981C8.80567 43.0001 9.168 43.0001 9.53468 43.0001H110.135C110.494 43.0001 110.859 43.0001 111.219 42.9981C111.523 42.9981 111.836 42.9942 112.141 42.9874C112.811 42.9791 113.479 42.92 114.141 42.8106C114.804 42.696 115.448 42.4834 116.049 42.1798C116.647 41.8759 117.193 41.478 117.666 41.0011C118.142 40.5284 118.541 39.9836 118.848 39.3868C119.15 38.7872 119.358 38.1451 119.467 37.4825C119.578 36.8208 119.64 36.1516 119.652 35.4806C119.656 35.17 119.656 34.8692 119.656 34.5587C119.664 34.1954 119.664 33.8341 119.664 33.4649V12.5363C119.664 12.17 119.664 11.8068 119.656 11.4445C119.656 11.1378 119.656 10.8302 119.652 10.5236C119.64 9.85255 119.578 9.18337 119.467 8.52157C119.358 7.85941 119.149 7.21763 118.848 6.61825C118.23 5.41533 117.252 4.43616 116.049 3.81845C115.448 3.5157 114.804 3.30437 114.141 3.19145C113.48 3.08123 112.811 3.02214 112.141 3.01469C111.836 3.00981 111.523 3.00395 111.219 3.002C110.859 3 110.494 3 110.135 3V3.00013Z" fill="#A6A6A6"/>
<path d="M8.44487 42.125C8.14019 42.125 7.84287 42.1211 7.54058 42.1143C6.91436 42.1061 6.2896 42.0516 5.67144 41.9512C5.09503 41.8519 4.53664 41.6673 4.0147 41.4033C3.49754 41.1415 3.02585 40.7983 2.6177 40.3867C2.20364 39.98 1.85891 39.5082 1.59719 38.9902C1.33258 38.4688 1.14945 37.9099 1.05419 37.333C0.951311 36.7131 0.895651 36.0863 0.887687 35.458C0.881347 35.2471 0.873047 34.5449 0.873047 34.5449V11.4443C0.873047 11.4443 0.881887 10.7529 0.887737 10.5498C0.895363 9.92248 0.950699 9.29665 1.05327 8.67773C1.14871 8.09925 1.33197 7.53875 1.59673 7.01563C1.85749 6.49794 2.2003 6.02586 2.61187 5.61768C3.02297 5.20562 3.49617 4.8606 4.01421 4.59521C4.53495 4.33209 5.09228 4.14873 5.66753 4.05127C6.28772 3.94984 6.91465 3.895 7.54304 3.88721L8.44536 3.875H111.214L112.127 3.8877C112.75 3.8951 113.371 3.94945 113.985 4.05029C114.566 4.14898 115.13 4.33362 115.656 4.59814C116.694 5.13299 117.539 5.97916 118.071 7.01807C118.332 7.53758 118.512 8.09351 118.607 8.66699C118.71 9.29099 118.768 9.92174 118.78 10.5542C118.783 10.8374 118.783 11.1416 118.783 11.4443C118.791 11.8193 118.791 12.1763 118.791 12.5361V33.4648C118.791 33.8281 118.791 34.1826 118.783 34.54C118.783 34.8652 118.783 35.1631 118.779 35.4697C118.768 36.0909 118.711 36.7104 118.608 37.3232C118.515 37.9043 118.333 38.4675 118.068 38.9932C117.805 39.5056 117.462 39.9733 117.053 40.3789C116.644 40.7927 116.172 41.1379 115.653 41.4014C115.128 41.6674 114.566 41.8527 113.985 41.9512C113.367 42.0522 112.742 42.1067 112.116 42.1143C111.823 42.1211 111.517 42.125 111.219 42.125L110.135 42.127L8.44487 42.125Z" fill="black"/>
<path d="M24.768 23.3013C24.7788 22.4666 25.0005 21.6483 25.4125 20.9223C25.8245 20.1964 26.4135 19.5864 27.1246 19.1492C26.6728 18.5041 26.0769 17.9731 25.3841 17.5986C24.6912 17.224 23.9206 17.0162 23.1334 16.9916C21.4542 16.8153 19.8262 17.9964 18.9705 17.9964C18.0982 17.9964 16.7807 17.0091 15.362 17.0383C14.4443 17.0679 13.55 17.3348 12.7661 17.8128C11.9822 18.2909 11.3356 18.9638 10.8891 19.7661C8.9551 23.1145 10.3977 28.0356 12.2503 30.7422C13.1772 32.0676 14.2605 33.548 15.6779 33.4955C17.065 33.438 17.583 32.611 19.2573 32.611C20.9161 32.611 21.4021 33.4955 22.8483 33.4621C24.3367 33.438 25.2745 32.1309 26.1688 30.793C26.8348 29.8486 27.3473 28.8049 27.6873 27.7005C26.8225 27.3347 26.0846 26.7226 25.5655 25.9403C25.0464 25.158 24.769 24.2402 24.768 23.3013Z" fill="white"/>
<path d="M22.0356 15.2113C22.8471 14.2371 23.247 12.9849 23.1501 11.7207C21.9103 11.8509 20.765 12.4435 19.9426 13.3803C19.5404 13.838 19.2324 14.3704 19.0362 14.9472C18.8399 15.524 18.7593 16.1337 18.7988 16.7417C19.419 16.7481 20.0325 16.6137 20.5932 16.3486C21.1538 16.0835 21.647 15.6946 22.0356 15.2113Z" fill="white"/>
<path d="M42.3008 30.1397H37.5674L36.4307 33.4961H34.4258L38.9092 21.0781H40.9922L45.4756 33.4961H43.4365L42.3008 30.1397ZM38.0576 28.5908H41.8096L39.96 23.1436H39.9082L38.0576 28.5908Z" fill="white"/>
<path d="M55.1573 28.9695C55.1573 31.7829 53.6514 33.5905 51.3789 33.5905C50.8033 33.6207 50.2308 33.4881 49.727 33.2079C49.2232 32.9278 48.8085 32.5114 48.5303 32.0065H48.4873V36.4909H46.6289V24.4421H48.4278V25.948H48.4619C48.7529 25.4455 49.1746 25.0313 49.6823 24.7495C50.1899 24.4676 50.7644 24.3287 51.3448 24.3474C53.6426 24.3474 55.1573 26.1638 55.1573 28.9695ZM53.2471 28.9695C53.2471 27.1365 52.2998 25.9314 50.8545 25.9314C49.4346 25.9314 48.4795 27.1618 48.4795 28.9695C48.4795 30.7937 49.4346 32.0154 50.8545 32.0154C52.2998 32.0154 53.2471 30.8191 53.2471 28.9695Z" fill="white"/>
<path d="M65.1221 28.9694C65.1221 31.7829 63.6162 33.5905 61.3438 33.5905C60.7681 33.6206 60.1956 33.488 59.6918 33.2079C59.188 32.9278 58.7733 32.5114 58.4952 32.0065H58.4521V36.4909H56.5938V24.4421H58.3926V25.948H58.4268C58.7177 25.4455 59.1394 25.0313 59.6471 24.7495C60.1547 24.4676 60.7292 24.3287 61.3096 24.3474C63.6075 24.3474 65.1221 26.1638 65.1221 28.9694ZM63.2119 28.9694C63.2119 27.1364 62.2647 25.9314 60.8194 25.9314C59.3994 25.9314 58.4444 27.1618 58.4444 28.9694C58.4444 30.7937 59.3994 32.0153 60.8194 32.0153C62.2647 32.0153 63.2119 30.8191 63.2119 28.9694H63.2119Z" fill="white"/>
<path d="M71.709 30.0362C71.8467 31.2676 73.043 32.0762 74.6778 32.0762C76.2442 32.0762 77.3711 31.2676 77.3711 30.1572C77.3711 29.1934 76.6914 28.6162 75.0821 28.2207L73.4727 27.833C71.1924 27.2822 70.1338 26.2158 70.1338 24.4854C70.1338 22.3428 72.001 20.8711 74.6524 20.8711C77.2764 20.8711 79.0752 22.3428 79.1358 24.4854H77.2598C77.1475 23.2461 76.1231 22.4981 74.626 22.4981C73.1289 22.4981 72.1045 23.2549 72.1045 24.3565C72.1045 25.2344 72.7588 25.751 74.3594 26.1465L75.7275 26.4824C78.2754 27.0849 79.334 28.1084 79.334 29.9248C79.334 32.248 77.4834 33.7031 74.54 33.7031C71.7861 33.7031 69.9268 32.2822 69.8066 30.0361L71.709 30.0362Z" fill="white"/>
<path d="M83.3437 22.2998V24.4424H85.0654V25.9141H83.3437V30.9053C83.3437 31.6807 83.6885 32.042 84.4453 32.042C84.6497 32.0384 84.8538 32.0241 85.0566 31.999V33.4619C84.7164 33.5255 84.3705 33.5543 84.0244 33.5478C82.1914 33.5478 81.4766 32.8593 81.4766 31.1035V25.9141H80.1602V24.4424H81.4765V22.2998H83.3437Z" fill="white"/>
<path d="M86.0645 28.9697C86.0645 26.1211 87.7422 24.3311 90.3584 24.3311C92.9834 24.3311 94.6533 26.1211 94.6533 28.9697C94.6533 31.8262 92.9922 33.6084 90.3584 33.6084C87.7255 33.6084 86.0645 31.8262 86.0645 28.9697ZM92.7598 28.9697C92.7598 27.0156 91.8643 25.8623 90.3584 25.8623C88.8525 25.8623 87.958 27.0244 87.958 28.9697C87.958 30.9316 88.8525 32.0762 90.3584 32.0762C91.8643 32.0762 92.7597 30.9316 92.7597 28.9697H92.7598Z" fill="white"/>
<path d="M96.1836 24.442H97.9561V25.983H97.9991C98.119 25.5017 98.4009 25.0764 98.7975 24.7785C99.1941 24.4806 99.6812 24.3284 100.177 24.3473C100.391 24.3465 100.605 24.3698 100.814 24.4166V26.1549C100.543 26.0723 100.261 26.0343 99.9785 26.0426C99.7085 26.0316 99.4394 26.0792 99.1895 26.1821C98.9397 26.285 98.7151 26.4408 98.5311 26.6386C98.3471 26.8365 98.2082 27.0719 98.1237 27.3286C98.0393 27.5852 98.0114 27.8571 98.042 28.1256V33.4957H96.1836L96.1836 24.442Z" fill="white"/>
<path d="M109.382 30.8369C109.132 32.4805 107.531 33.6084 105.483 33.6084C102.85 33.6084 101.215 31.8437 101.215 29.0127C101.215 26.1729 102.858 24.3311 105.405 24.3311C107.91 24.3311 109.485 26.0518 109.485 28.7969V29.4336H103.091V29.5459C103.061 29.8791 103.103 30.2148 103.213 30.5306C103.323 30.8464 103.5 31.1352 103.73 31.3778C103.96 31.6203 104.24 31.8111 104.549 31.9374C104.859 32.0637 105.192 32.1226 105.526 32.1103C105.966 32.1515 106.406 32.0498 106.783 31.8203C107.16 31.5909 107.452 31.246 107.617 30.8369L109.382 30.8369ZM103.1 28.1348H107.626C107.643 27.8352 107.597 27.5354 107.493 27.2541C107.388 26.9729 107.226 26.7164 107.018 26.5006C106.809 26.2849 106.558 26.1145 106.281 26.0003C106.003 25.8861 105.705 25.8305 105.405 25.8369C105.103 25.8351 104.803 25.8933 104.523 26.008C104.243 26.1227 103.988 26.2918 103.774 26.5054C103.559 26.7191 103.389 26.973 103.274 27.2527C103.158 27.5323 103.099 27.8321 103.1 28.1348V28.1348Z" fill="white"/>
<path d="M37.8271 11.7304C38.2168 11.7024 38.6077 11.7613 38.9718 11.9027C39.3359 12.0442 39.6641 12.2647 39.9327 12.5483C40.2013 12.8319 40.4036 13.1716 40.525 13.5429C40.6464 13.9141 40.6839 14.3077 40.6348 14.6952C40.6348 16.6015 39.6045 17.6972 37.8271 17.6972H35.6719V11.7304H37.8271ZM36.5986 16.8534H37.7236C38.002 16.87 38.2806 16.8244 38.5392 16.7198C38.7977 16.6152 39.0297 16.4542 39.2182 16.2487C39.4067 16.0431 39.5469 15.7981 39.6288 15.5315C39.7107 15.2648 39.7321 14.9833 39.6914 14.7074C39.7291 14.4326 39.7056 14.1528 39.6224 13.8881C39.5393 13.6235 39.3987 13.3805 39.2106 13.1765C39.0226 12.9726 38.7917 12.8128 38.5346 12.7086C38.2776 12.6043 38.0006 12.5582 37.7236 12.5736H36.5986V16.8534Z" fill="white"/>
<path d="M41.6819 15.4438C41.6536 15.1479 41.6875 14.8493 41.7813 14.5672C41.8751 14.2852 42.0269 14.0258 42.2268 13.8059C42.4268 13.5859 42.6705 13.4101 42.9423 13.2898C43.2142 13.1696 43.5082 13.1074 43.8055 13.1074C44.1027 13.1074 44.3967 13.1696 44.6686 13.2898C44.9404 13.4101 45.1841 13.5859 45.3841 13.8059C45.584 14.0258 45.7358 14.2852 45.8296 14.5672C45.9235 14.8493 45.9573 15.1479 45.929 15.4438C45.9578 15.74 45.9244 16.039 45.8308 16.3215C45.7372 16.6041 45.5855 16.8639 45.3855 17.0843C45.1856 17.3047 44.9417 17.4808 44.6695 17.6014C44.3974 17.7219 44.1031 17.7842 43.8055 17.7842C43.5078 17.7842 43.2135 17.7219 42.9414 17.6014C42.6693 17.4808 42.4254 17.3047 42.2254 17.0843C42.0254 16.8639 41.8737 16.6041 41.7801 16.3215C41.6865 16.039 41.6531 15.74 41.6819 15.4438ZM45.0149 15.4438C45.0149 14.4677 44.5764 13.8969 43.8069 13.8969C43.0345 13.8969 42.5999 14.4677 42.5999 15.4438C42.5999 16.4277 43.0345 16.9941 43.8069 16.9941C44.5765 16.9941 45.0149 16.4238 45.0149 15.4438H45.0149Z" fill="white"/>
<path d="M51.5742 17.6973H50.6523L49.7217 14.3809H49.6514L48.7246 17.6973H47.8115L46.5703 13.1943H47.4717L48.2783 16.6303H48.3447L49.2705 13.1943H50.1231L51.0488 16.6303H51.1191L51.9219 13.1943H52.8105L51.5742 17.6973Z" fill="white"/>
<path d="M53.8555 13.1939H54.7109V13.9092H54.7773C54.89 13.6523 55.08 13.4369 55.3209 13.2931C55.5617 13.1493 55.8415 13.0842 56.1211 13.107C56.3402 13.0905 56.5602 13.1235 56.7648 13.2036C56.9694 13.2837 57.1533 13.4088 57.303 13.5697C57.4527 13.7305 57.5643 13.923 57.6295 14.1328C57.6947 14.3426 57.7118 14.5644 57.6797 14.7818V17.6968H56.791V15.0049C56.791 14.2813 56.4766 13.9214 55.8193 13.9214C55.6706 13.9145 55.5221 13.9398 55.384 13.9957C55.246 14.0515 55.1216 14.1365 55.0195 14.2449C54.9174 14.3533 54.8399 14.4825 54.7924 14.6236C54.7448 14.7647 54.7284 14.9145 54.7441 15.0625V17.6968H53.8555L53.8555 13.1939Z" fill="white"/>
<path d="M59.0938 11.4365H59.9824V17.6973H59.0938V11.4365Z" fill="white"/>
<path d="M61.219 15.4439C61.1907 15.1479 61.2246 14.8494 61.3185 14.5673C61.4123 14.2852 61.5641 14.0259 61.7641 13.8059C61.964 13.5859 62.2078 13.4101 62.4796 13.2898C62.7515 13.1696 63.0455 13.1074 63.3428 13.1074C63.6401 13.1074 63.9341 13.1696 64.206 13.2898C64.4778 13.4101 64.7215 13.5859 64.9215 13.8059C65.1215 14.0259 65.2733 14.2852 65.3671 14.5673C65.461 14.8494 65.4949 15.1479 65.4666 15.4439C65.4954 15.7401 65.4619 16.0391 65.3683 16.3216C65.2747 16.6042 65.123 16.864 64.9229 17.0844C64.7229 17.3048 64.479 17.4809 64.2069 17.6014C63.9348 17.722 63.6404 17.7842 63.3428 17.7842C63.0452 17.7842 62.7508 17.722 62.4787 17.6014C62.2065 17.4809 61.9626 17.3048 61.7626 17.0844C61.5626 16.864 61.4109 16.6042 61.3173 16.3216C61.2237 16.0391 61.1902 15.7401 61.219 15.4439ZM64.552 15.4439C64.552 14.4678 64.1135 13.897 63.344 13.897C62.5715 13.897 62.137 14.4678 62.137 15.4439C62.137 16.4278 62.5716 16.9942 63.344 16.9942C64.1135 16.9942 64.552 16.4239 64.552 15.4439H64.552Z" fill="white"/>
<path d="M66.4023 16.4238C66.4023 15.6133 67.0059 15.146 68.0771 15.0796L69.2969 15.0093V14.6206C69.2969 14.145 68.9824 13.8765 68.375 13.8765C67.8789 13.8765 67.5352 14.0586 67.4365 14.377H66.5762C66.667 13.6035 67.3945 13.1074 68.416 13.1074C69.5449 13.1074 70.1816 13.6694 70.1816 14.6206V17.6973H69.3262V17.0645H69.2559C69.1131 17.2914 68.9127 17.4765 68.6751 17.6007C68.4375 17.7249 68.1712 17.7838 67.9033 17.7715C67.7143 17.7911 67.5232 17.7709 67.3425 17.7122C67.1617 17.6536 66.9953 17.5576 66.8538 17.4307C66.7124 17.3037 66.5992 17.1485 66.5214 16.9751C66.4437 16.8017 66.4031 16.6139 66.4023 16.4238ZM69.2969 16.0391V15.6626L68.1973 15.7329C67.5771 15.7744 67.2959 15.9853 67.2959 16.3823C67.2959 16.7876 67.6474 17.0234 68.1309 17.0234C68.2725 17.0378 68.4156 17.0235 68.5516 16.9814C68.6876 16.9393 68.8138 16.8703 68.9226 16.7784C69.0313 16.6866 69.1205 16.5738 69.1849 16.4468C69.2492 16.3198 69.2873 16.1811 69.2969 16.0391Z" fill="white"/>
<path d="M71.3496 15.4439C71.3496 14.021 72.0811 13.1196 73.2188 13.1196C73.5002 13.1067 73.7795 13.1741 74.024 13.314C74.2685 13.4539 74.4682 13.6605 74.5996 13.9096H74.666V11.4365H75.5547V17.6973H74.7031V16.9858H74.6328C74.4912 17.2333 74.2846 17.4374 74.0353 17.5758C73.7861 17.7143 73.5037 17.782 73.2188 17.7715C72.0732 17.7715 71.3496 16.8701 71.3496 15.4439ZM72.2676 15.4439C72.2676 16.3989 72.7178 16.9737 73.4707 16.9737C74.2197 16.9737 74.6826 16.3907 74.6826 15.4478C74.6826 14.5093 74.2149 13.918 73.4707 13.918C72.7227 13.918 72.2676 14.4966 72.2676 15.4439H72.2676Z" fill="white"/>
<path d="M79.2307 15.4438C79.2024 15.1479 79.2363 14.8493 79.3301 14.5672C79.424 14.2852 79.5757 14.0258 79.7757 13.8059C79.9756 13.5859 80.2193 13.4101 80.4912 13.2898C80.763 13.1696 81.057 13.1074 81.3543 13.1074C81.6516 13.1074 81.9455 13.1696 82.2174 13.2898C82.4892 13.4101 82.7329 13.5859 82.9329 13.8059C83.1328 14.0258 83.2846 14.2852 83.3784 14.5672C83.4723 14.8493 83.5061 15.1479 83.4778 15.4438C83.5067 15.74 83.4732 16.039 83.3796 16.3215C83.286 16.6041 83.1344 16.8639 82.9344 17.0843C82.7344 17.3047 82.4905 17.4808 82.2184 17.6014C81.9462 17.7219 81.6519 17.7842 81.3543 17.7842C81.0567 17.7842 80.7623 17.7219 80.4902 17.6014C80.2181 17.4808 79.9742 17.3047 79.7742 17.0843C79.5742 16.8639 79.4225 16.6041 79.3289 16.3215C79.2353 16.039 79.2019 15.74 79.2307 15.4438ZM82.5637 15.4438C82.5637 14.4677 82.1253 13.8969 81.3557 13.8969C80.5833 13.8969 80.1487 14.4677 80.1487 15.4438C80.1487 16.4277 80.5833 16.9941 81.3557 16.9941C82.1253 16.9941 82.5637 16.4238 82.5637 15.4438Z" fill="white"/>
<path d="M84.6699 13.1939H85.5254V13.9092H85.5918C85.7045 13.6523 85.8945 13.4369 86.1353 13.2931C86.3762 13.1493 86.6559 13.0842 86.9356 13.107C87.1547 13.0905 87.3746 13.1235 87.5792 13.2036C87.7838 13.2837 87.9678 13.4088 88.1175 13.5697C88.2672 13.7305 88.3787 13.923 88.4439 14.1328C88.5091 14.3426 88.5263 14.5644 88.4941 14.7818V17.6968H87.6055V15.0049C87.6055 14.2813 87.291 13.9214 86.6338 13.9214C86.485 13.9145 86.3365 13.9398 86.1985 13.9957C86.0604 14.0515 85.9361 14.1365 85.8339 14.2449C85.7318 14.3533 85.6543 14.4825 85.6068 14.6236C85.5593 14.7647 85.5428 14.9145 85.5586 15.0625V17.6968H84.6699V13.1939Z" fill="white"/>
<path d="M93.5166 12.0732V13.2148H94.4922V13.9634H93.5166V16.2788C93.5166 16.7505 93.7109 16.957 94.1533 16.957C94.2666 16.9567 94.3797 16.9498 94.4922 16.9365V17.6768C94.3326 17.7053 94.1709 17.7205 94.0088 17.7222C93.0205 17.7222 92.627 17.3745 92.627 16.5063V13.9633H91.9121V13.2148H92.627V12.0732H93.5166Z" fill="white"/>
<path d="M95.7051 11.4365H96.5859V13.918H96.6562C96.7744 13.6587 96.9696 13.4421 97.2153 13.2977C97.461 13.1534 97.7452 13.0883 98.0292 13.1113C98.2472 13.0995 98.4651 13.1359 98.6674 13.2179C98.8697 13.2999 99.0513 13.4256 99.1995 13.586C99.3476 13.7463 99.4585 13.9373 99.5243 14.1455C99.5901 14.3536 99.6091 14.5737 99.58 14.79V17.6973H98.6905V15.0093C98.6905 14.29 98.3555 13.9258 97.7276 13.9258C97.5748 13.9132 97.4212 13.9342 97.2774 13.9873C97.1337 14.0404 97.0032 14.1242 96.8952 14.2329C96.7872 14.3417 96.7043 14.4727 96.6522 14.6168C96.6002 14.761 96.5802 14.9147 96.5938 15.0674V17.6973H95.7051L95.7051 11.4365Z" fill="white"/>
<path d="M104.761 16.4815C104.641 16.8931 104.379 17.249 104.022 17.4872C103.666 17.7253 103.237 17.8305 102.81 17.7842C102.514 17.7921 102.219 17.7353 101.946 17.6177C101.674 17.5002 101.43 17.3248 101.232 17.1036C101.034 16.8825 100.887 16.6209 100.8 16.3371C100.713 16.0533 100.69 15.754 100.73 15.46C100.691 15.1652 100.715 14.8652 100.801 14.5805C100.888 14.2959 101.035 14.0331 101.231 13.81C101.428 13.587 101.671 13.4088 101.943 13.2876C102.214 13.1664 102.509 13.105 102.806 13.1075C104.059 13.1075 104.815 13.9635 104.815 15.3775V15.6876H101.635V15.7374C101.621 15.9026 101.642 16.069 101.696 16.2257C101.751 16.3825 101.837 16.5262 101.95 16.6476C102.063 16.7691 102.2 16.8656 102.352 16.931C102.504 16.9964 102.669 17.0292 102.835 17.0274C103.047 17.0529 103.263 17.0146 103.453 16.9174C103.644 16.8202 103.802 16.6685 103.906 16.4815L104.761 16.4815ZM101.635 15.0303H103.91C103.921 14.8792 103.9 14.7274 103.85 14.5847C103.799 14.442 103.718 14.3115 103.614 14.2016C103.51 14.0918 103.383 14.005 103.243 13.9468C103.103 13.8886 102.953 13.8604 102.801 13.8638C102.648 13.8619 102.495 13.8908 102.353 13.9487C102.21 14.0067 102.081 14.0925 101.972 14.2012C101.864 14.3099 101.778 14.4393 101.72 14.5817C101.662 14.7241 101.633 14.8766 101.635 15.0303H101.635Z" fill="white"/>
</svg>
