<svg width="284" height="46" viewBox="0 0 284 46" fill="none" xmlns="http://www.w3.org/2000/svg">
<path d="M130 3H5C2.23858 3 0 5.23858 0 8V38C0 40.7614 2.23858 43 5 43H130C132.761 43 135 40.7614 135 38V8C135 5.23858 132.761 3 130 3Z" fill="black"/>
<path d="M130 3.8C131.114 3.8 132.182 4.2425 132.97 5.03015C133.758 5.8178 134.2 6.88609 134.2 8V38C134.2 39.1139 133.758 40.1822 132.97 40.9698C132.182 41.7575 131.114 42.2 130 42.2H5C3.88609 42.2 2.8178 41.7575 2.03015 40.9698C1.2425 40.1822 0.8 39.1139 0.8 38V8C0.8 6.88609 1.2425 5.8178 2.03015 5.03015C2.8178 4.2425 3.88609 3.8 5 3.8H130ZM130 3H5C3.67392 3 2.40215 3.52678 1.46447 4.46447C0.526784 5.40215 0 6.67392 0 8V38C0 39.3261 0.526784 40.5979 1.46447 41.5355C2.40215 42.4732 3.67392 43 5 43H130C131.326 43 132.598 42.4732 133.536 41.5355C134.473 40.5979 135 39.3261 135 38V8C135 6.67392 134.473 5.40215 133.536 4.46447C132.598 3.52678 131.326 3 130 3Z" fill="#A6A6A6"/>
<path d="M44.4535 13.4858H46.4871V16.3951C46.1707 16.496 45.8488 16.5724 45.5214 16.6242C45.1941 16.676 44.8149 16.702 44.3839 16.702C43.4783 16.702 42.7731 16.4333 42.2685 15.8959C41.7638 15.3558 41.5115 14.6001 41.5115 13.629C41.5115 13.0071 41.6356 12.4629 41.8838 11.9964C42.1348 11.5272 42.4949 11.1698 42.9641 10.9243C43.4333 10.6761 43.9829 10.552 44.6131 10.552C45.2514 10.552 45.8461 10.6693 46.3971 10.9039L46.127 11.5176C45.5869 11.2885 45.0672 11.1739 44.568 11.1739C43.8397 11.1739 43.2709 11.3908 42.8618 11.8245C42.4526 12.2583 42.248 12.8598 42.248 13.629C42.248 14.4365 42.4444 15.0489 42.8372 15.4662C43.2328 15.8836 43.8124 16.0923 44.5762 16.0923C44.9909 16.0923 45.396 16.0445 45.7915 15.9491V14.1078H44.4535V13.4858ZM51.2622 16.6201H47.9274V10.6379H51.2622V11.2558H48.623V13.183H51.1026V13.7968H48.623V15.9982H51.2622V16.6201ZM54.4334 16.6201H53.7378V11.2558H51.8433V10.6379H56.3279V11.2558H54.4334V16.6201ZM59.409 16.6201V10.6379H60.1046V16.6201H59.409ZM63.5908 16.6201H62.8952V11.2558H61.0007V10.6379H65.4853V11.2558H63.5908V16.6201ZM73.7589 13.6208C73.7589 14.5783 73.5161 15.3312 73.0306 15.8795C72.5478 16.4278 71.8753 16.702 71.0133 16.702C70.1322 16.702 69.4516 16.4333 68.9715 15.8959C68.4941 15.3558 68.2555 14.5947 68.2555 13.6126C68.2555 12.6388 68.4955 11.8845 68.9756 11.3499C69.4557 10.8125 70.1377 10.5438 71.0215 10.5438C71.8808 10.5438 72.5518 10.8166 73.0347 11.3622C73.5175 11.9077 73.7589 12.6606 73.7589 13.6208ZM68.992 13.6208C68.992 14.431 69.1638 15.0461 69.5075 15.4662C69.854 15.8836 70.3559 16.0923 71.0133 16.0923C71.6762 16.0923 72.1768 15.8836 72.515 15.4662C72.8533 15.0489 73.0224 14.4337 73.0224 13.6208C73.0224 12.8161 72.8533 12.2064 72.515 11.7918C72.1795 11.3744 71.6817 11.1658 71.0215 11.1658C70.3586 11.1658 69.854 11.3758 69.5075 11.7959C69.1638 12.2133 68.992 12.8216 68.992 13.6208ZM79.7698 16.6201H78.976L75.7066 11.5995H75.6739C75.7175 12.1887 75.7394 12.7288 75.7394 13.2198V16.6201H75.0969V10.6379H75.8826L79.1437 15.6381H79.1765C79.171 15.5644 79.1587 15.3285 79.1396 14.9302C79.1205 14.5292 79.1137 14.2428 79.1192 14.0709V10.6379H79.7698V16.6201Z" fill="white"/>
<path d="M44.4535 13.4858V13.3858H44.3535V13.4858H44.4535ZM46.4871 13.4858H46.5871V13.3858H46.4871V13.4858ZM46.4871 16.3951L46.5175 16.4903L46.5871 16.4681V16.3951H46.4871ZM42.2685 15.8959L42.1954 15.9641L42.1956 15.9643L42.2685 15.8959ZM41.8838 11.9964L41.7956 11.9492L41.7955 11.9494L41.8838 11.9964ZM42.9641 10.9243L43.0104 11.0129L43.0108 11.0127L42.9641 10.9243ZM46.3971 10.9039L46.4886 10.9442L46.5294 10.8515L46.4363 10.8119L46.3971 10.9039ZM46.127 11.5176L46.088 11.6097L46.1788 11.6482L46.2186 11.5579L46.127 11.5176ZM42.8372 15.4662L42.7644 15.5348L42.7646 15.535L42.8372 15.4662ZM45.7915 15.9491L45.815 16.0463L45.8915 16.0278V15.9491H45.7915ZM45.7915 14.1078H45.8915V14.0078H45.7915V14.1078ZM44.4535 14.1078H44.3535V14.2078H44.4535V14.1078ZM44.4535 13.5858H46.4871V13.3858H44.4535V13.5858ZM46.3871 13.4858V16.3951H46.5871V13.4858H46.3871ZM46.4567 16.2998C46.1451 16.3992 45.8281 16.4744 45.5058 16.5254L45.5371 16.723C45.8694 16.6704 46.1962 16.5928 46.5175 16.4903L46.4567 16.2998ZM45.5058 16.5254C45.1849 16.5762 44.8111 16.602 44.3839 16.602V16.802C44.8187 16.802 45.2033 16.7758 45.5371 16.723L45.5058 16.5254ZM44.3839 16.602C43.4991 16.602 42.8229 16.3402 42.3414 15.8274L42.1956 15.9643C42.7233 16.5263 43.4574 16.802 44.3839 16.802V16.602ZM42.3415 15.8276C41.859 15.3112 41.6115 14.583 41.6115 13.629H41.4115C41.4115 14.6173 41.6686 15.4003 42.1954 15.9641L42.3415 15.8276ZM41.6115 13.629C41.6115 13.0205 41.7328 12.493 41.9721 12.0434L41.7955 11.9494C41.5384 12.4327 41.4115 12.9936 41.4115 13.629H41.6115ZM41.972 12.0436C42.2136 11.592 42.5591 11.2491 43.0104 11.0129L42.9177 10.8357C42.4306 11.0906 42.056 11.4624 41.7956 11.9492L41.972 12.0436ZM43.0108 11.0127C43.4631 10.7734 43.9962 10.652 44.6131 10.652V10.452C43.9697 10.452 43.4034 10.5788 42.9173 10.8359L43.0108 11.0127ZM44.6131 10.652C45.2388 10.652 45.8201 10.7669 46.3579 10.9959L46.4363 10.8119C45.872 10.5717 45.2639 10.452 44.6131 10.452V10.652ZM46.3055 10.8636L46.0355 11.4774L46.2186 11.5579L46.4886 10.9442L46.3055 10.8636ZM46.1661 11.4256C45.6157 11.1921 45.0828 11.0739 44.568 11.0739V11.2739C45.0517 11.2739 45.5581 11.3849 46.088 11.6097L46.1661 11.4256ZM44.568 11.0739C43.8187 11.0739 43.2212 11.2978 42.789 11.7559L42.9345 11.8932C43.3207 11.4838 43.8607 11.2739 44.568 11.2739V11.0739ZM42.789 11.7559C42.3577 12.2131 42.148 12.8419 42.148 13.629H42.348C42.348 12.8776 42.5475 12.3034 42.9345 11.8932L42.789 11.7559ZM42.148 13.629C42.148 14.4515 42.3481 15.0924 42.7644 15.5348L42.91 15.3977C42.5407 15.0053 42.348 14.4214 42.348 13.629H42.148ZM42.7646 15.535C43.1847 15.9782 43.7944 16.1923 44.5762 16.1923V15.9923C43.8305 15.9923 43.2808 15.789 42.9098 15.3974L42.7646 15.535ZM44.5762 16.1923C44.9986 16.1923 45.4116 16.1436 45.815 16.0463L45.768 15.8519C45.3803 15.9454 44.9831 15.9923 44.5762 15.9923V16.1923ZM45.8915 15.9491V14.1078H45.6915V15.9491H45.8915ZM45.7915 14.0078H44.4535V14.2078H45.7915V14.0078ZM44.5535 14.1078V13.4858H44.3535V14.1078H44.5535ZM51.2622 16.6201V16.7201H51.3622V16.6201H51.2622ZM47.9274 16.6201H47.8274V16.7201H47.9274V16.6201ZM47.9274 10.6379V10.5379H47.8274V10.6379H47.9274ZM51.2622 10.6379H51.3622V10.5379H51.2622V10.6379ZM51.2622 11.2558V11.3558H51.3622V11.2558H51.2622ZM48.623 11.2558V11.1558H48.523V11.2558H48.623ZM48.623 13.183H48.523V13.283H48.623V13.183ZM51.1026 13.183H51.2026V13.083H51.1026V13.183ZM51.1026 13.7968V13.8968H51.2026V13.7968H51.1026ZM48.623 13.7968V13.6968H48.523V13.7968H48.623ZM48.623 15.9982H48.523V16.0982H48.623V15.9982ZM51.2622 15.9982H51.3622V15.8982H51.2622V15.9982ZM51.2622 16.5201H47.9274V16.7201H51.2622V16.5201ZM48.0274 16.6201V10.6379H47.8274V16.6201H48.0274ZM47.9274 10.7379H51.2622V10.5379H47.9274V10.7379ZM51.1622 10.6379V11.2558H51.3622V10.6379H51.1622ZM51.2622 11.1558H48.623V11.3558H51.2622V11.1558ZM48.523 11.2558V13.183H48.723V11.2558H48.523ZM48.623 13.283H51.1026V13.083H48.623V13.283ZM51.0026 13.183V13.7968H51.2026V13.183H51.0026ZM51.1026 13.6968H48.623V13.8968H51.1026V13.6968ZM48.523 13.7968V15.9982H48.723V13.7968H48.523ZM48.623 16.0982H51.2622V15.8982H48.623V16.0982ZM51.1622 15.9982V16.6201H51.3622V15.9982H51.1622ZM54.4334 16.6201V16.7201H54.5334V16.6201H54.4334ZM53.7378 16.6201H53.6378V16.7201H53.7378V16.6201ZM53.7378 11.2558H53.8378V11.1558H53.7378V11.2558ZM51.8433 11.2558H51.7433V11.3558H51.8433V11.2558ZM51.8433 10.6379V10.5379H51.7433V10.6379H51.8433ZM56.3279 10.6379H56.4279V10.5379H56.3279V10.6379ZM56.3279 11.2558V11.3558H56.4279V11.2558H56.3279ZM54.4334 11.2558V11.1558H54.3334V11.2558H54.4334ZM54.4334 16.5201H53.7378V16.7201H54.4334V16.5201ZM53.8378 16.6201V11.2558H53.6378V16.6201H53.8378ZM53.7378 11.1558H51.8433V11.3558H53.7378V11.1558ZM51.9433 11.2558V10.6379H51.7433V11.2558H51.9433ZM51.8433 10.7379H56.3279V10.5379H51.8433V10.7379ZM56.2279 10.6379V11.2558H56.4279V10.6379H56.2279ZM56.3279 11.1558H54.4334V11.3558H56.3279V11.1558ZM54.3334 11.2558V16.6201H54.5334V11.2558H54.3334ZM59.409 16.6201H59.309V16.7201H59.409V16.6201ZM59.409 10.6379V10.5379H59.309V10.6379H59.409ZM60.1046 10.6379H60.2046V10.5379H60.1046V10.6379ZM60.1046 16.6201V16.7201H60.2046V16.6201H60.1046ZM59.509 16.6201V10.6379H59.309V16.6201H59.509ZM59.409 10.7379H60.1046V10.5379H59.409V10.7379ZM60.0046 10.6379V16.6201H60.2046V10.6379H60.0046ZM60.1046 16.5201H59.409V16.7201H60.1046V16.5201ZM63.5908 16.6201V16.7201H63.6908V16.6201H63.5908ZM62.8952 16.6201H62.7952V16.7201H62.8952V16.6201ZM62.8952 11.2558H62.9952V11.1558H62.8952V11.2558ZM61.0007 11.2558H60.9007V11.3558H61.0007V11.2558ZM61.0007 10.6379V10.5379H60.9007V10.6379H61.0007ZM65.4853 10.6379H65.5853V10.5379H65.4853V10.6379ZM65.4853 11.2558V11.3558H65.5853V11.2558H65.4853ZM63.5908 11.2558V11.1558H63.4908V11.2558H63.5908ZM63.5908 16.5201H62.8952V16.7201H63.5908V16.5201ZM62.9952 16.6201V11.2558H62.7952V16.6201H62.9952ZM62.8952 11.1558H61.0007V11.3558H62.8952V11.1558ZM61.1007 11.2558V10.6379H60.9007V11.2558H61.1007ZM61.0007 10.7379H65.4853V10.5379H61.0007V10.7379ZM65.3853 10.6379V11.2558H65.5853V10.6379H65.3853ZM65.4853 11.1558H63.5908V11.3558H65.4853V11.1558ZM63.4908 11.2558V16.6201H63.6908V11.2558H63.4908ZM73.0306 15.8795L72.9557 15.8132L72.9555 15.8134L73.0306 15.8795ZM68.9715 15.8959L68.8966 15.9621L68.8969 15.9625L68.9715 15.8959ZM68.9756 11.3499L69.05 11.4167L69.0502 11.4165L68.9756 11.3499ZM69.5075 15.4662L69.4302 15.5296L69.4306 15.5301L69.5075 15.4662ZM72.515 11.7918L72.4371 11.8545L72.4375 11.855L72.515 11.7918ZM69.5075 11.7959L69.4304 11.7323L69.4304 11.7323L69.5075 11.7959ZM73.6589 13.6208C73.6589 14.5616 73.4206 15.2882 72.9557 15.8132L73.1054 15.9458C73.6117 15.3742 73.8589 14.5951 73.8589 13.6208H73.6589ZM72.9555 15.8134C72.4951 16.3362 71.8523 16.602 71.0133 16.602V16.802C71.8984 16.802 72.6004 16.5194 73.1056 15.9456L72.9555 15.8134ZM71.0133 16.602C70.1538 16.602 69.5031 16.3408 69.0461 15.8292L68.8969 15.9625C69.4002 16.5258 70.1106 16.802 71.0133 16.802V16.602ZM69.0465 15.8296C68.5903 15.3135 68.3555 14.5792 68.3555 13.6126H68.1555C68.1555 14.6102 68.398 15.398 68.8966 15.9621L69.0465 15.8296ZM68.3555 13.6126C68.3555 12.6546 68.5915 11.9273 69.05 11.4167L68.9012 11.2831C68.3995 11.8418 68.1555 12.623 68.1555 13.6126H68.3555ZM69.0502 11.4165C69.5071 10.9051 70.1592 10.6438 71.0215 10.6438V10.4438C70.1162 10.4438 69.4043 10.7199 68.901 11.2833L69.0502 11.4165ZM71.0215 10.6438C71.8578 10.6438 72.4994 10.9082 72.9598 11.4284L73.1096 11.2959C72.6043 10.725 71.9038 10.4438 71.0215 10.4438V10.6438ZM72.9598 11.4284C73.4219 11.9506 73.6589 12.6771 73.6589 13.6208H73.8589C73.8589 12.6441 73.6131 11.8649 73.1096 11.2959L72.9598 11.4284ZM68.892 13.6208C68.892 14.4431 69.0661 15.0846 69.4302 15.5296L69.5849 15.4029C69.2615 15.0076 69.092 14.4189 69.092 13.6208H68.892ZM69.4306 15.5301C69.8001 15.9752 70.3331 16.1923 71.0133 16.1923V15.9923C70.3787 15.9923 69.9079 15.792 69.5845 15.4024L69.4306 15.5301ZM71.0133 16.1923C71.6986 16.1923 72.2311 15.9754 72.5927 15.5292L72.4373 15.4033C72.1225 15.7918 71.6538 15.9923 71.0133 15.9923V16.1923ZM72.5927 15.5292C72.9512 15.0869 73.1224 14.4454 73.1224 13.6208H72.9224C72.9224 14.4221 72.7554 15.0108 72.4373 15.4033L72.5927 15.5292ZM73.1224 13.6208C73.1224 12.8042 72.9511 12.1681 72.5925 11.7286L72.4375 11.855C72.7555 12.2447 72.9224 12.828 72.9224 13.6208H73.1224ZM72.593 11.7291C72.2341 11.2827 71.7042 11.0658 71.0215 11.0658V11.2658C71.6591 11.2658 72.1249 11.4661 72.4371 11.8545L72.593 11.7291ZM71.0215 11.0658C70.3359 11.0658 69.8 11.2841 69.4304 11.7323L69.5847 11.8595C69.908 11.4674 70.3814 11.2658 71.0215 11.2658V11.0658ZM69.4304 11.7323C69.0663 12.1744 68.892 12.8091 68.892 13.6208H69.092C69.092 12.834 69.2614 12.2521 69.5847 11.8595L69.4304 11.7323ZM79.7698 16.6201V16.7201H79.8698V16.6201H79.7698ZM78.976 16.6201L78.8922 16.6747L78.9218 16.7201H78.976V16.6201ZM75.7066 11.5995L75.7904 11.5449L75.7608 11.4995H75.7066V11.5995ZM75.6739 11.5995V11.4995H75.5662L75.5742 11.6069L75.6739 11.5995ZM75.7394 16.6201V16.7201H75.8394V16.6201H75.7394ZM75.0969 16.6201H74.9969V16.7201H75.0969V16.6201ZM75.0969 10.6379V10.5379H74.9969V10.6379H75.0969ZM75.8826 10.6379L75.9663 10.5833L75.9367 10.5379H75.8826V10.6379ZM79.1437 15.6381L79.06 15.6927L79.0896 15.7381H79.1437V15.6381ZM79.1765 15.6381V15.7381H79.2841L79.2762 15.6307L79.1765 15.6381ZM79.1396 14.9302L79.0398 14.935L79.0398 14.935L79.1396 14.9302ZM79.1192 14.0709L79.2192 14.0741V14.0709H79.1192ZM79.1192 10.6379V10.5379H79.0192V10.6379H79.1192ZM79.7698 10.6379H79.8698V10.5379H79.7698V10.6379ZM79.7698 16.5201H78.976V16.7201H79.7698V16.5201ZM79.0598 16.5655L75.7904 11.5449L75.6228 11.6541L78.8922 16.6747L79.0598 16.5655ZM75.7066 11.4995H75.6739V11.6995H75.7066V11.4995ZM75.5742 11.6069C75.6177 12.1941 75.6394 12.7317 75.6394 13.2198H75.8394C75.8394 12.7259 75.8174 12.1833 75.7736 11.5921L75.5742 11.6069ZM75.6394 13.2198V16.6201H75.8394V13.2198H75.6394ZM75.7394 16.5201H75.0969V16.7201H75.7394V16.5201ZM75.1969 16.6201V10.6379H74.9969V16.6201H75.1969ZM75.0969 10.7379H75.8826V10.5379H75.0969V10.7379ZM75.7988 10.6925L79.06 15.6927L79.2275 15.5835L75.9663 10.5833L75.7988 10.6925ZM79.1437 15.7381H79.1765V15.5381H79.1437V15.7381ZM79.2762 15.6307C79.2709 15.5587 79.2587 15.3244 79.2395 14.9254L79.0398 14.935C79.0588 15.3325 79.0712 15.5702 79.0767 15.6455L79.2762 15.6307ZM79.2395 14.9254C79.2204 14.5246 79.2138 14.2416 79.2191 14.0741L79.0192 14.0678C79.0136 14.2439 79.0207 14.5339 79.0398 14.935L79.2395 14.9254ZM79.2192 14.0709V10.6379H79.0192V14.0709H79.2192ZM79.1192 10.7379H79.7698V10.5379H79.1192V10.7379ZM79.6698 10.6379V16.6201H79.8698V10.6379H79.6698Z" fill="white"/>
<path d="M68.1401 24.7499C67.2976 24.7519 66.4745 25.0037 65.7751 25.4734C65.0756 25.9432 64.5312 26.6098 64.2106 27.3889C63.89 28.1681 63.8076 29.0248 63.9739 29.8508C64.1402 30.6768 64.5477 31.4349 65.1449 32.0293C65.7421 32.6236 66.5021 33.0276 67.3288 33.19C68.1556 33.3524 69.0119 33.2661 69.7896 32.9418C70.5672 32.6175 71.2313 32.07 71.6977 31.3683C72.1642 30.6667 72.4121 29.8425 72.4101 28.9999C72.4183 28.4379 72.3132 27.8799 72.1013 27.3593C71.8893 26.8386 71.5748 26.366 71.1764 25.9694C70.7779 25.5729 70.3038 25.2606 69.7822 25.051C69.2606 24.8415 68.7021 24.7391 68.1401 24.7499ZM68.1401 31.5799C67.6237 31.616 67.1083 31.496 66.6611 31.2353C66.2138 30.9747 65.8553 30.5855 65.6321 30.1184C65.409 29.6512 65.3315 29.1278 65.4098 28.6161C65.4881 28.1043 65.7185 27.628 66.0711 27.249C66.4237 26.8699 66.8821 26.6057 67.3869 26.4907C67.8916 26.3757 68.4193 26.4152 68.9013 26.604C69.3833 26.7929 69.7973 27.1223 70.0896 27.5496C70.3819 27.9769 70.5388 28.4822 70.5401 28.9999C70.5562 29.3279 70.5065 29.6559 70.3938 29.9643C70.2812 30.2728 70.1079 30.5556 69.8842 30.7961C69.6606 31.0366 69.391 31.2298 69.0914 31.3644C68.7919 31.499 68.4684 31.5723 68.1401 31.5799ZM58.8201 24.7499C57.9776 24.7519 57.1545 25.0037 56.4551 25.4734C55.7556 25.9432 55.2112 26.6098 54.8906 27.3889C54.57 28.1681 54.4876 29.0248 54.6539 29.8508C54.8202 30.6768 55.2277 31.4349 55.8249 32.0293C56.4221 32.6236 57.1821 33.0276 58.0088 33.19C58.8356 33.3524 59.6919 33.2661 60.4696 32.9418C61.2472 32.6175 61.9113 32.07 62.3777 31.3683C62.8442 30.6667 63.0921 29.8425 63.0901 28.9999C63.0982 28.4379 62.9932 27.8799 62.7813 27.3593C62.5693 26.8386 62.2548 26.366 61.8564 25.9694C61.4579 25.5729 60.9838 25.2606 60.4622 25.051C59.9406 24.8415 59.3821 24.7391 58.8201 24.7499ZM58.8201 31.5799C58.3037 31.616 57.7883 31.496 57.3411 31.2353C56.8938 30.9747 56.5353 30.5855 56.3121 30.1184C56.089 29.6512 56.0115 29.1278 56.0898 28.6161C56.1681 28.1043 56.3985 27.628 56.7511 27.249C57.1037 26.8699 57.5621 26.6057 58.0669 26.4907C58.5716 26.3757 59.0993 26.4152 59.5813 26.604C60.0633 26.7929 60.4773 27.1223 60.7696 27.5496C61.0619 27.9769 61.2188 28.4822 61.2201 28.9999C61.2362 29.3279 61.1865 29.6559 61.0738 29.9643C60.9612 30.2728 60.7879 30.5556 60.5642 30.7961C60.3406 31.0366 60.071 31.2298 59.7714 31.3644C59.4719 31.499 59.1484 31.5723 58.8201 31.5799ZM47.7401 26.0599V27.8599H52.0601C51.9924 28.7077 51.6399 29.5077 51.0601 30.1299C50.6268 30.5714 50.1056 30.9171 49.5302 31.1444C48.9549 31.3718 48.3382 31.4759 47.7201 31.4499C46.4471 31.4499 45.2262 30.9442 44.326 30.044C43.4258 29.1439 42.9201 27.923 42.9201 26.6499C42.9201 25.3769 43.4258 24.156 44.326 23.2558C45.2262 22.3556 46.4471 21.8499 47.7201 21.8499C48.9405 21.8318 50.119 22.2952 51.0001 23.1399L52.2701 21.8699C51.6741 21.2804 50.9664 20.8158 50.1886 20.5033C49.4107 20.1908 48.5783 20.0366 47.7401 20.0499C46.8511 20.0153 45.9643 20.1605 45.1327 20.4769C44.3012 20.7932 43.5421 21.2742 42.9009 21.8909C42.2596 22.5077 41.7495 23.2475 41.4011 24.0661C41.0527 24.8847 40.873 25.7652 40.873 26.6549C40.873 27.5446 41.0527 28.4251 41.4011 29.2437C41.7495 30.0623 42.2596 30.8022 42.9009 31.4189C43.5421 32.0357 44.3012 32.5166 45.1327 32.833C45.9643 33.1493 46.8511 33.2945 47.7401 33.2599C48.5955 33.2941 49.4485 33.1469 50.243 32.8281C51.0375 32.5092 51.7556 32.0259 52.3501 31.4099C53.4002 30.2563 53.9598 28.7391 53.9101 27.1799C53.9137 26.8046 53.8836 26.4298 53.8201 26.0599H47.7401ZM93.0501 27.4599C92.7893 26.6927 92.3016 26.0227 91.6516 25.5388C91.0016 25.0548 90.2199 24.7797 89.4101 24.7499C88.8631 24.7489 88.3217 24.86 87.8193 25.0765C87.317 25.2929 86.8644 25.6101 86.4895 26.0085C86.1146 26.4068 85.8254 26.8778 85.6397 27.3923C85.4541 27.9068 85.3759 28.454 85.4101 28.9999C85.4016 29.9128 85.6885 30.8039 86.2282 31.5402C86.7679 32.2765 87.5313 32.8184 88.4044 33.0851C89.2774 33.3517 90.2134 33.3288 91.0723 33.0196C91.9313 32.7105 92.6672 32.1318 93.1701 31.3699L91.7201 30.3699C91.5039 30.7302 91.1974 31.0277 90.8307 31.2329C90.4641 31.4382 90.0502 31.544 89.6301 31.5399C89.1967 31.5578 88.768 31.4442 88.4003 31.214C88.0327 30.9837 87.7432 30.6477 87.5701 30.2499L93.2601 27.8999L93.0501 27.4599ZM87.2501 28.8799C87.2298 28.5693 87.2717 28.2578 87.3734 27.9635C87.475 27.6693 87.6343 27.3983 87.842 27.1664C88.0497 26.9346 88.3015 26.7464 88.5828 26.6131C88.8641 26.4798 89.1691 26.4039 89.4801 26.3899C89.8023 26.3703 90.1231 26.4461 90.4024 26.608C90.6817 26.7699 90.907 27.0106 91.0501 27.2999L87.2501 28.8799ZM82.6301 32.9999H84.5001V20.4999H82.6301V32.9999ZM79.5701 25.6999H79.5001C79.2207 25.3818 78.876 25.1277 78.4894 24.9551C78.1028 24.7825 77.6835 24.6955 77.2601 24.6999C76.1673 24.7529 75.1367 25.2243 74.3821 26.0165C73.6274 26.8087 73.2064 27.8608 73.2064 28.9549C73.2064 30.049 73.6274 31.1012 74.3821 31.8933C75.1367 32.6855 76.1673 33.1569 77.2601 33.2099C77.6841 33.2184 78.1047 33.1332 78.4919 32.9603C78.8791 32.7875 79.2234 32.5312 79.5001 32.2099H79.5701V32.8199C79.5701 34.4499 78.7001 35.3199 77.3001 35.3199C76.8324 35.3096 76.3783 35.1606 75.9955 34.8918C75.6127 34.6229 75.3185 34.2464 75.1501 33.8099L73.5301 34.4799C73.8296 35.2322 74.3504 35.8758 75.0235 36.3258C75.6966 36.7757 76.4905 37.0108 77.3001 36.9999C79.4901 36.9999 81.3001 35.7099 81.3001 32.5699V24.9999H79.5701V25.6999ZM77.4201 31.5799C76.7649 31.5391 76.1499 31.25 75.7004 30.7716C75.2509 30.2932 75.0006 29.6614 75.0006 29.0049C75.0006 28.3485 75.2509 27.7167 75.7004 27.2383C76.1499 26.7598 76.7649 26.4708 77.4201 26.4299C77.7403 26.4437 78.0545 26.5218 78.344 26.6596C78.6334 26.7973 78.8922 26.9918 79.1049 27.2316C79.3176 27.4714 79.4799 27.7515 79.5822 28.0553C79.6844 28.3591 79.7245 28.6803 79.7001 28.9999C79.7274 29.3206 79.6893 29.6435 79.5883 29.9491C79.4872 30.2546 79.3252 30.5365 79.1121 30.7777C78.8989 31.0189 78.6391 31.2143 78.3483 31.3522C78.0575 31.4901 77.7417 31.5676 77.4201 31.5799ZM101.81 20.4999H97.3301V32.9999H99.2001V28.2599H101.81C102.343 28.2982 102.878 28.2263 103.382 28.0487C103.886 27.871 104.348 27.5915 104.739 27.2274C105.13 26.8634 105.442 26.4227 105.655 25.9328C105.869 25.4428 105.979 24.9142 105.979 24.3799C105.979 23.8456 105.869 23.317 105.655 22.8271C105.442 22.3372 105.13 21.8965 104.739 21.5324C104.348 21.1684 103.886 20.8888 103.382 20.7112C102.878 20.5336 102.343 20.4616 101.81 20.4999ZM101.81 26.4999H99.2001V22.2399H101.85C102.131 22.2399 102.409 22.2953 102.669 22.4028C102.929 22.5104 103.165 22.668 103.363 22.8667C103.562 23.0654 103.72 23.3013 103.827 23.561C103.935 23.8206 103.99 24.0989 103.99 24.3799C103.99 24.661 103.935 24.9392 103.827 25.1989C103.72 25.4585 103.562 25.6944 103.363 25.8931C103.165 26.0918 102.929 26.2495 102.669 26.357C102.409 26.4646 102.131 26.5199 101.85 26.5199L101.81 26.4999ZM113.35 24.7099C112.669 24.6679 111.991 24.8265 111.399 25.1659C110.807 25.5054 110.328 26.0109 110.02 26.6199L111.67 27.3099C111.837 27.0093 112.087 26.7634 112.39 26.602C112.694 26.4405 113.038 26.3703 113.38 26.3999C113.617 26.3722 113.858 26.392 114.088 26.4582C114.317 26.5245 114.531 26.6358 114.718 26.7856C114.904 26.9355 115.058 27.1209 115.172 27.3311C115.286 27.5413 115.356 27.7721 115.38 28.0099V28.1299C114.779 27.8138 114.109 27.6491 113.43 27.6499C111.65 27.6499 109.83 28.6499 109.83 30.4699C109.848 30.8568 109.943 31.2361 110.11 31.5855C110.277 31.9348 110.513 32.247 110.803 32.5035C111.093 32.7601 111.432 32.9557 111.799 33.0787C112.166 33.2018 112.554 33.2498 112.94 33.2199C113.409 33.2459 113.877 33.1466 114.295 32.9322C114.714 32.7178 115.067 32.3961 115.32 31.9999H115.38V32.9999H117.18V28.1899C117.18 25.9999 115.52 24.7299 113.39 24.7299L113.35 24.7099ZM113.12 31.5599C112.51 31.5599 111.66 31.2499 111.66 30.4999C111.66 29.4999 112.72 29.1599 113.66 29.1599C114.254 29.1453 114.841 29.2903 115.36 29.5799C115.297 30.123 115.04 30.6249 114.635 30.9926C114.231 31.3604 113.707 31.569 113.16 31.5799L113.12 31.5599ZM123.74 24.9999L121.6 30.4199H121.54L119.32 24.9999H117.32L120.65 32.5799L118.75 36.7899H120.7L125.82 24.9999H123.74ZM106.94 32.9999H108.8V20.4999H106.94V32.9999Z" fill="white"/>
<path d="M20.7203 22.4199L10.0703 33.7199C10.1867 34.1473 10.3997 34.5423 10.693 34.8742C10.9862 35.2062 11.3519 35.4663 11.7617 35.6345C12.1714 35.8026 12.6144 35.8744 13.0563 35.8441C13.4982 35.8138 13.9273 35.6824 14.3103 35.4599L26.3103 28.5399L20.7203 22.4199Z" fill="#EA4335"/>
<path d="M31.4902 20.5L26.3102 17.5L20.4902 22.69L26.3302 28.54L31.4802 25.54C31.938 25.2948 32.3207 24.93 32.5875 24.4845C32.8543 24.0389 32.9952 23.5293 32.9952 23.01C32.9952 22.4907 32.8543 21.9811 32.5875 21.5355C32.3207 21.09 31.938 20.7252 31.4802 20.48L31.4902 20.5Z" fill="#FBBC04"/>
<path d="M10.071 12.2803C10.0181 12.5165 9.99463 12.7583 10.001 13.0003V33.0003C10.0028 33.2502 10.0364 33.4989 10.101 33.7403L21.101 22.7403L10.071 12.2803Z" fill="#4285F4"/>
<path d="M20.7991 22.9996L26.3091 17.4896L14.3091 10.5496C13.8582 10.2816 13.3435 10.14 12.8191 10.1396C12.1864 10.1415 11.5719 10.3508 11.0697 10.7356C10.5675 11.1204 10.2054 11.6593 10.0391 12.2696L20.7991 22.9996Z" fill="#34A853"/>
</svg>
