<svg width="320" height="64" viewBox="0 0 320 64" fill="none" xmlns="http://www.w3.org/2000/svg">
<path d="M37.4082 48H50.3259L18.3261 16H5.4082L37.4082 48Z" fill="#475569"/>
<path d="M24.9629 16L55.8103 46.8474V16H47.4624V25.7391L37.7233 16L24.9629 16Z" fill="#475569"/>
<path d="M0 17.0713V47.9999H8.34782V38.2607L18.0869 47.9999H30.9287L0 17.0713Z" fill="#475569"/>
<path d="M72.2695 25.8555L67.6289 40H63.8906L70.2305 22.9375H72.6094L72.2695 25.8555ZM76.125 40L71.4727 25.8555L71.0977 22.9375H73.5L79.875 40H76.125ZM75.9141 33.6484V36.4023H66.9023V33.6484H75.9141ZM84.6211 30.0859V40H81.2461V27.3203H84.4219L84.6211 30.0859ZM88.4414 27.2383L88.3828 30.3672C88.2188 30.3438 88.0195 30.3242 87.7852 30.3086C87.5586 30.2852 87.3516 30.2734 87.1641 30.2734C86.6875 30.2734 86.2734 30.3359 85.9219 30.4609C85.5781 30.5781 85.2891 30.7539 85.0547 30.9883C84.8281 31.2227 84.6562 31.5078 84.5391 31.8438C84.4297 32.1797 84.3672 32.5625 84.3516 32.9922L83.6719 32.7812C83.6719 31.9609 83.7539 31.207 83.918 30.5195C84.082 29.8242 84.3203 29.2188 84.6328 28.7031C84.9531 28.1875 85.3438 27.7891 85.8047 27.5078C86.2656 27.2266 86.793 27.0859 87.3867 27.0859C87.5742 27.0859 87.7656 27.1016 87.9609 27.1328C88.1562 27.1562 88.3164 27.1914 88.4414 27.2383ZM96.832 27.3203V29.7109H89.4492V27.3203H96.832ZM91.2773 24.1914H94.6523V36.1797C94.6523 36.5469 94.6992 36.8281 94.793 37.0234C94.8945 37.2188 95.043 37.3555 95.2383 37.4336C95.4336 37.5039 95.6797 37.5391 95.9766 37.5391C96.1875 37.5391 96.375 37.5312 96.5391 37.5156C96.7109 37.4922 96.8555 37.4688 96.9727 37.4453L96.9844 39.9297C96.6953 40.0234 96.3828 40.0977 96.0469 40.1523C95.7109 40.207 95.3398 40.2344 94.9336 40.2344C94.1914 40.2344 93.543 40.1133 92.9883 39.8711C92.4414 39.6211 92.0195 39.2227 91.7227 38.6758C91.4258 38.1289 91.2773 37.4102 91.2773 36.5195V24.1914ZM105.117 36.4375L109.137 22.9375H113.051L107.109 40H104.531L105.117 36.4375ZM101.414 22.9375L105.422 36.4375L106.031 40H103.43L97.5234 22.9375H101.414ZM119.754 40.2344C118.77 40.2344 117.887 40.0781 117.105 39.7656C116.324 39.4453 115.66 39.0039 115.113 38.4414C114.574 37.8789 114.16 37.2266 113.871 36.4844C113.582 35.7344 113.438 34.9375 113.438 34.0938V33.625C113.438 32.6641 113.574 31.7852 113.848 30.9883C114.121 30.1914 114.512 29.5 115.02 28.9141C115.535 28.3281 116.16 27.8789 116.895 27.5664C117.629 27.2461 118.457 27.0859 119.379 27.0859C120.277 27.0859 121.074 27.2344 121.77 27.5312C122.465 27.8281 123.047 28.25 123.516 28.7969C123.992 29.3438 124.352 30 124.594 30.7656C124.836 31.5234 124.957 32.3672 124.957 33.2969V34.7031H114.879V32.4531H121.641V32.1953C121.641 31.7266 121.555 31.3086 121.383 30.9414C121.219 30.5664 120.969 30.2695 120.633 30.0508C120.297 29.832 119.867 29.7227 119.344 29.7227C118.898 29.7227 118.516 29.8203 118.195 30.0156C117.875 30.2109 117.613 30.4844 117.41 30.8359C117.215 31.1875 117.066 31.6016 116.965 32.0781C116.871 32.5469 116.824 33.0625 116.824 33.625V34.0938C116.824 34.6016 116.895 35.0703 117.035 35.5C117.184 35.9297 117.391 36.3008 117.656 36.6133C117.93 36.9258 118.258 37.168 118.641 37.3398C119.031 37.5117 119.473 37.5977 119.965 37.5977C120.574 37.5977 121.141 37.4805 121.664 37.2461C122.195 37.0039 122.652 36.6406 123.035 36.1562L124.676 37.9375C124.41 38.3203 124.047 38.6875 123.586 39.0391C123.133 39.3906 122.586 39.6797 121.945 39.9062C121.305 40.125 120.574 40.2344 119.754 40.2344ZM130.184 30.0273V40H126.809V27.3203H129.973L130.184 30.0273ZM129.691 33.2148H128.777C128.777 32.2773 128.898 31.4336 129.141 30.6836C129.383 29.9258 129.723 29.2812 130.16 28.75C130.598 28.2109 131.117 27.8008 131.719 27.5195C132.328 27.2305 133.008 27.0859 133.758 27.0859C134.352 27.0859 134.895 27.1719 135.387 27.3438C135.879 27.5156 136.301 27.7891 136.652 28.1641C137.012 28.5391 137.285 29.0352 137.473 29.6523C137.668 30.2695 137.766 31.0234 137.766 31.9141V40H134.367V31.9023C134.367 31.3398 134.289 30.9023 134.133 30.5898C133.977 30.2773 133.746 30.0586 133.441 29.9336C133.145 29.8008 132.777 29.7344 132.34 29.7344C131.887 29.7344 131.492 29.8242 131.156 30.0039C130.828 30.1836 130.555 30.4336 130.336 30.7539C130.125 31.0664 129.965 31.4336 129.855 31.8555C129.746 32.2773 129.691 32.7305 129.691 33.2148ZM147.832 36.9648V27.3203H151.207V40H148.031L147.832 36.9648ZM148.207 34.3633L149.203 34.3398C149.203 35.1836 149.105 35.9688 148.91 36.6953C148.715 37.4141 148.422 38.0391 148.031 38.5703C147.641 39.0938 147.148 39.5039 146.555 39.8008C145.961 40.0898 145.262 40.2344 144.457 40.2344C143.84 40.2344 143.27 40.1484 142.746 39.9766C142.23 39.7969 141.785 39.5195 141.41 39.1445C141.043 38.7617 140.754 38.2734 140.543 37.6797C140.34 37.0781 140.238 36.3555 140.238 35.5117V27.3203H143.613V35.5352C143.613 35.9102 143.656 36.2266 143.742 36.4844C143.836 36.7422 143.965 36.9531 144.129 37.1172C144.293 37.2812 144.484 37.3984 144.703 37.4688C144.93 37.5391 145.18 37.5742 145.453 37.5742C146.148 37.5742 146.695 37.4336 147.094 37.1523C147.5 36.8711 147.785 36.4883 147.949 36.0039C148.121 35.5117 148.207 34.9648 148.207 34.3633ZM159.621 40.2344C158.637 40.2344 157.754 40.0781 156.973 39.7656C156.191 39.4453 155.527 39.0039 154.98 38.4414C154.441 37.8789 154.027 37.2266 153.738 36.4844C153.449 35.7344 153.305 34.9375 153.305 34.0938V33.625C153.305 32.6641 153.441 31.7852 153.715 30.9883C153.988 30.1914 154.379 29.5 154.887 28.9141C155.402 28.3281 156.027 27.8789 156.762 27.5664C157.496 27.2461 158.324 27.0859 159.246 27.0859C160.145 27.0859 160.941 27.2344 161.637 27.5312C162.332 27.8281 162.914 28.25 163.383 28.7969C163.859 29.3438 164.219 30 164.461 30.7656C164.703 31.5234 164.824 32.3672 164.824 33.2969V34.7031H154.746V32.4531H161.508V32.1953C161.508 31.7266 161.422 31.3086 161.25 30.9414C161.086 30.5664 160.836 30.2695 160.5 30.0508C160.164 29.832 159.734 29.7227 159.211 29.7227C158.766 29.7227 158.383 29.8203 158.062 30.0156C157.742 30.2109 157.48 30.4844 157.277 30.8359C157.082 31.1875 156.934 31.6016 156.832 32.0781C156.738 32.5469 156.691 33.0625 156.691 33.625V34.0938C156.691 34.6016 156.762 35.0703 156.902 35.5C157.051 35.9297 157.258 36.3008 157.523 36.6133C157.797 36.9258 158.125 37.168 158.508 37.3398C158.898 37.5117 159.34 37.5977 159.832 37.5977C160.441 37.5977 161.008 37.4805 161.531 37.2461C162.062 37.0039 162.52 36.6406 162.902 36.1562L164.543 37.9375C164.277 38.3203 163.914 38.6875 163.453 39.0391C163 39.3906 162.453 39.6797 161.812 39.9062C161.172 40.125 160.441 40.2344 159.621 40.2344Z" fill="#475569"/>
</svg>
