<svg width="25" height="24" viewBox="0 0 25 24" fill="none" xmlns="http://www.w3.org/2000/svg">
<path d="M18.478 5.01711H6.81102C4.52102 5.01711 2.66602 6.85211 2.66602 9.11611V14.8841C2.66602 17.1481 4.52202 18.9841 6.81102 18.9841H18.478C20.768 18.9841 22.623 17.1481 22.623 14.8841V9.11611C22.623 6.85211 20.767 5.01611 18.478 5.01611V5.01711ZM15.675 12.2801L10.218 14.8551C10.1847 14.8711 10.1479 14.8785 10.111 14.8765C10.0742 14.8744 10.0384 14.8631 10.007 14.8436C9.97571 14.824 9.94983 14.7968 9.93182 14.7646C9.9138 14.7323 9.90424 14.6961 9.90402 14.6591V9.35011C9.90468 9.31299 9.91474 9.27663 9.93324 9.24444C9.95174 9.21224 9.97809 9.18526 10.0098 9.16599C10.0416 9.14673 10.0777 9.13581 10.1148 9.13425C10.1519 9.1327 10.1888 9.14057 10.222 9.15711L15.68 11.8921C15.7164 11.9102 15.7469 11.9383 15.768 11.9729C15.7892 12.0076 15.8001 12.0476 15.7996 12.0882C15.7991 12.1288 15.7871 12.1685 15.7651 12.2026C15.743 12.2367 15.7118 12.2639 15.675 12.2811V12.2801Z" fill="#E2E8F0"/>
</svg>
